# xmcd
#
# Track frame offsets:
# 150
# 13650
# 24482
# 44905
# 51762
# 64317
# 78610
# 94405
# 104985
# 122225
# 134080
# 148930
# 166200
# 181002
# 190792
# 204102
# 218430
# 228242
#
# Disc length: 3255 seconds
#
#
# Revision: 1
# Processed by: cddbd v1.5.2PL0 Copyright (c) Steve Scherf et al.
# Submitted via: FreeRIP 2.951 
#
DISCID=0c0cb512
DTITLE=Various Artist - Great Gospel Feeling, Disc 2
DYEAR=1996
DGENRE=Gospel
TTITLE0=How Great Thou Art - The Statler Brothers
TTITLE1=Daddy Sang Bass - Johnny Cash
TTITLE2=Precious Memories - Emmylou Harris
TTITLE3=The Bible Tells Me So - Roy Rogers and Dale Evans
TTITLE4=Great Speckled Bird - Roy Acuff
TTITLE5=Go Tell It On The Mountain - Mahalia Jackson
TTITLE6=Nearer My God To Thee - Tennessee Ernie Ford
TTITLE7=Lily Of The Valley - The Forester Sisters
TTITLE8=The Old Rugged Cross - Burl Ives
TTITLE9=Blessed Assurance - The Jordanaires featuring Ray Walker
TTITLE10=You Can't Be A Deacon - Donna Fargo
TTITLE11=Uncloudy Day - Willie Nelson
TTITLE12=Just As I Am - B. J. Thomas
TTITLE13=My God Is Real - Pat Boone
TTITLE14=It Is No Secret - Jim reeves
TTITLE15=Softly And Tenderly - Lorretta Lynn
TTITLE16=The Hour Of Prayer - The Oak Ridge Boys
TTITLE17=May The Good Lord Bless And Keep You - Kate Smith
EXTD=
EXTT0=
EXTT1=
EXTT2=
EXTT3=
EXTT4=
EXTT5=
EXTT6=
EXTT7=
EXTT8=
EXTT9=
EXTT10=
EXTT11=
EXTT12=
EXTT13=
EXTT14=
EXTT15=
EXTT16=
EXTT17=
PLAYORDER=
